<?xml version="1.0" encoding="UTF-8"?>
<svg id="Layer_2" data-name="Layer 2" xmlns="http://www.w3.org/2000/svg" viewBox="0 0 75 73.12">
  <defs>
    <style>
      .cls-1 {
        fill: #99f;
      }

      .cls-1, .cls-2 {
        stroke-width: 0px;
      }

      .cls-2 {
        fill: #00005b;
      }
    </style>
  </defs>
  <g id="Layer_1-2" data-name="Layer 1">
    <g id="vlpa">
      <g id="vlpb">
        <g id="vlpc">
          <g id="vlpd">
            <path class="cls-2" d="m13.28,0h48.44c7.34,0,13.28,5.94,13.28,13.28v46.56c0,7.34-5.94,13.28-13.28,13.28H13.28c-7.34,0-13.28-5.94-13.28-13.28V13.28C0,5.94,5.94,0,13.28,0Z"/>
          </g>
        </g>
      </g>
      <g id="vlpe">
        <g id="vlpf">
          <path class="cls-1" d="m30.13,43.75h-11.63l-2.37,7.38c-.06.28-.31.47-.59.44h-5.87c-.34,0-.44-.19-.34-.56l10.06-28.84c.09-.31.19-.59.31-.97.13-.66.19-1.34.19-2.03-.03-.16.09-.31.25-.34h8.09c.22,0,.37.09.41.25l11.41,31.88c.09.34,0,.5-.31.5h-6.53c-.22.03-.44-.12-.5-.34l-2.56-7.5v.16Zm-9.81-6.22h7.94c-.19-.66-.44-1.44-.72-2.25-.28-.84-.56-1.75-.84-2.69-.31-.97-.59-1.91-.91-2.87s-.59-1.88-.84-2.78c-.25-.88-.47-1.69-.69-2.44h-.06c-.28,1.34-.62,2.69-1.06,4.03-.47,1.5-.94,3.06-1.44,4.63-.41,1.59-.91,3.06-1.38,4.37Z"/>
          <path class="cls-1" d="m58.44,40.94h-9.91c.12.97.44,1.94.97,2.78.56.84,1.34,1.5,2.28,1.88,1.25.53,2.62.81,4,.78,1.09-.03,2.19-.12,3.25-.34.97-.12,1.91-.37,2.78-.72.16-.12.25-.06.25.25v4.78c0,.12-.03.25-.06.37-.06.09-.12.16-.22.22-1,.44-2.03.75-3.12.94-1.47.28-2.94.41-4.44.37-2.38,0-4.38-.37-6-1.09-1.53-.66-2.87-1.69-3.94-2.97-1-1.22-1.72-2.59-2.16-4.09-.44-1.47-.66-3-.66-4.56,0-1.69.25-3.34.78-4.97.5-1.56,1.28-3,2.34-4.28,1.03-1.25,2.31-2.25,3.78-2.97s3.22-.97,5.22-.97c1.66-.03,3.31.28,4.84.97,1.28.56,2.41,1.41,3.28,2.5.81,1.06,1.47,2.25,1.88,3.56.41,1.25.59,2.53.59,3.81,0,.75-.03,1.41-.06,2-.06.59-.09,1.03-.12,1.31-.03.22-.22.41-.44.41-.19,0-.53.03-1.03.06-.5.06-1.09.09-1.81.09s-1.47-.12-2.28-.12h0Zm-9.91-4.56h6.59c.81,0,1.41,0,1.78-.03.25-.03.5-.09.72-.25v-.31c0-.41-.06-.78-.19-1.16-.56-1.75-2.22-2.94-4.06-2.87-1.72-.09-3.34.81-4.16,2.37-.37.72-.59,1.47-.69,2.25Z"/>
        </g>
      </g>
    </g>
  </g>
</svg>